<svg width="300" height="300" viewBox="0 0 300 300" fill="none" xmlns="http://www.w3.org/2000/svg">
<g clip-path="url(#clip0_10_15)">
<path d="M156 144L10.875 289.125C3.9375 282.562 0.1875 273.562 0.1875 263.812V36.1875C0.1875 26.25 4.125 17.25 11.25 10.5L156 144Z" fill="#2196F3"/>
<path d="M281.438 150C281.438 163.125 274.313 174.75 262.5 181.313L221.25 204.188L170.062 156.937L156 144L210.188 89.8125L262.5 118.687C274.313 125.25 281.438 136.875 281.438 150Z" fill="#FFC107"/>
<path d="M156 144L11.25 10.5C13.125 8.62502 15.5625 6.93752 18 5.43752C29.8125 -1.68748 44.0625 -1.87498 56.25 4.87502L210.187 89.8125L156 144Z" fill="#4CAF50"/>
<path d="M221.25 204.188L56.25 295.125C50.4375 298.5 43.875 300 37.5 300C30.75 300 24 298.313 18 294.563C15.3963 293.071 13.0006 291.243 10.875 289.125L156 144L170.062 156.938L221.25 204.188Z" fill="#F44336"/>
</g>
<defs>
<clipPath id="clip0_10_15">
<rect width="300" height="300" fill="white"/>
</clipPath>
</defs>
</svg>
