<svg width="300" height="300" viewBox="0 0 300 300" fill="none" xmlns="http://www.w3.org/2000/svg">
<g clip-path="url(#clip0_37_2)">
<path fill-rule="evenodd" clip-rule="evenodd" d="M300 65.0001V235C300.017 243.541 298.348 252.001 295.087 259.895C291.827 267.789 287.039 274.961 281 281C274.961 287.039 267.789 291.827 259.895 295.087C252.001 298.348 243.541 300.017 235 300H65.0001C56.4594 300.017 47.9994 298.348 40.1055 295.087C32.2117 291.827 25.0393 287.039 19.0001 281C12.9609 274.961 8.17372 267.789 4.91321 259.895C1.65269 252.001 -0.016934 243.541 0.00012948 235V65.0001C-0.016934 56.4594 1.65269 47.9994 4.91321 40.1055C8.17372 32.2117 12.9609 25.0393 19.0001 19.0001C25.0393 12.9609 32.2117 8.17372 40.1055 4.91321C47.9994 1.65269 56.4594 -0.016934 65.0001 0.00012948H235C243.541 -0.016934 252.001 1.65269 259.895 4.91321C267.789 8.17372 274.961 12.9609 281 19.0001C287.039 25.0393 291.827 32.2117 295.087 40.1055C298.348 47.9994 300.017 56.4594 300 65.0001Z" fill="url(#paint0_linear_37_2)"/>
<path fill-rule="evenodd" clip-rule="evenodd" d="M206.5 172.5H243.75C247.397 172.5 250.894 173.949 253.473 176.527C256.051 179.106 257.5 182.603 257.5 186.25C257.5 189.897 256.051 193.394 253.473 195.973C250.894 198.551 247.397 200 243.75 200H206.5V172.5Z" fill="white"/>
<path fill-rule="evenodd" clip-rule="evenodd" d="M160.75 172.5C163.348 172.484 165.923 172.985 168.326 173.972C170.73 174.959 172.913 176.413 174.75 178.25C176.587 180.087 178.041 182.27 179.028 184.674C180.015 187.077 180.516 189.652 180.5 192.25C180.51 194.906 180.001 197.539 179 200H56.25C52.6033 200 49.1059 198.551 46.5273 195.973C43.9487 193.394 42.5 189.897 42.5 186.25C42.5 182.603 43.9487 179.106 46.5273 176.527C49.1059 173.949 52.6033 172.5 56.25 172.5H160.75ZM157.25 82V106H141.25L121.75 72.5C120.893 71.0225 120.337 69.3906 120.111 67.6977C119.886 66.0049 119.997 64.2842 120.437 62.6341C120.877 60.984 121.639 59.4369 122.677 58.0813C123.716 56.7257 125.012 55.5881 126.491 54.7338C127.969 53.8794 129.602 53.3249 131.295 53.1021C132.988 52.8792 134.709 52.9924 136.358 53.435C138.008 53.8777 139.554 54.6412 140.908 55.6819C142.262 56.7226 143.398 58.02 144.25 59.5L157.25 82ZM171 105.25L239.25 223.5C241.073 226.649 241.571 230.394 240.633 233.911C239.696 237.427 237.399 240.427 234.25 242.25C231.101 244.073 227.356 244.571 223.839 243.633C220.323 242.696 217.323 240.399 215.5 237.25L174.25 165.5C170.5 158.5 167.75 153 166 150C161.892 143.001 160.159 134.86 161.06 126.794C161.961 118.728 165.448 111.17 171 105.25Z" fill="white"/>
<path fill-rule="evenodd" clip-rule="evenodd" d="M115 185H83.25L155 60.75C156.823 57.6006 159.823 55.3044 163.339 54.3668C166.856 53.4291 170.601 53.9266 173.75 55.75C176.899 57.5734 179.196 60.5732 180.133 64.0895C181.071 67.6058 180.573 71.3506 178.75 74.5L115 185ZM98.25 213.75L85 237C84.0972 238.559 82.896 239.926 81.4651 241.021C80.0342 242.116 78.4016 242.919 76.6605 243.383C74.9194 243.848 73.1039 243.964 71.3177 243.727C69.5315 243.49 67.8095 242.903 66.25 242C64.6906 241.097 63.3242 239.896 62.229 238.465C61.1337 237.034 60.331 235.402 59.8668 233.661C59.4025 231.919 59.2856 230.104 59.523 228.318C59.7603 226.531 60.3472 224.809 61.25 223.25L71 206.25C74.0278 204.744 77.3683 203.973 80.75 204C84.2771 203.884 87.7693 204.73 90.8522 206.448C93.935 208.166 96.4923 210.69 98.25 213.75Z" fill="white"/>
</g>
<defs>
<linearGradient id="paint0_linear_37_2" x1="149.998" y1="300" x2="149.998" y2="0.000143051" gradientUnits="userSpaceOnUse">
<stop stop-color="#1D6FF2"/>
<stop offset="1" stop-color="#1AC8FC"/>
</linearGradient>
<clipPath id="clip0_37_2">
<rect width="300" height="300" fill="white"/>
</clipPath>
</defs>
</svg>
